# xmcd
#
# Track frame offsets: 
#        150
#        5964
#        27131
#        52495
#        75951
#        100140
#        124493
#        158365
#        185610
#        208602
#        236917
#        257577
#        282632
#        315939
#
# Disc length: 4502 seconds
#
# Revision: 1
# Processed by: cddbd v1.5.2PL0 Copyright (c) Steve Scherf et al.
# Submitted via: ExactAudioCopy v0.99pb4
#
DISCID=c111940e
DTITLE=Bruce Springsteen - East Rutherford, 5-19-05(drewcatc tape-Disc
DTITLE=1)
DYEAR=2005
DGENRE=Rock and Roll
TTITLE0=Intro
TTITLE1=My Beautiful Reward
TTITLE2=Reason To Believe
TTITLE3=Devils and Dust
TTITLE4=Lonesome Day
TTITLE5=Long Time Coming
TTITLE6=Black Cowboys
TTITLE7=The River
TTITLE8=Real World
TTITLE9=Part Man, Part Monkey
TTITLE10=All The Way Home
TTITLE11=Nebraska
TTITLE12=Reno
TTITLE13=The Wish
EXTD=
EXTT0=
EXTT1=
EXTT2=
EXTT3=
EXTT4=
EXTT5=
EXTT6=
EXTT7=
EXTT8=
EXTT9=
EXTT10=
EXTT11=
EXTT12=
EXTT13=
PLAYORDER=
